<mxfile host="app.diagrams.net" agent="Mozilla/5.0 (Windows NT 10.0; Win64; x64) AppleWebKit/537.36 (KHTML, like Gecko) Chrome/135.0.0.0 Safari/537.36" version="26.2.9">
  <diagram name="第 1 页" id="qtbnUa6J9ApBmLn-pT76">
    <mxGraphModel dx="746" dy="401" grid="1" gridSize="10" guides="1" tooltips="1" connect="1" arrows="1" fold="1" page="1" pageScale="1" pageWidth="827" pageHeight="1169" math="0" shadow="0">
      <root>
        <mxCell id="0" />
        <mxCell id="1" parent="0" />
        <mxCell id="qt35eCXLMZ2NVoNJmHUJ-1" value="" style="rounded=1;whiteSpace=wrap;html=1;" vertex="1" parent="1">
          <mxGeometry x="50" y="130" width="643" height="360" as="geometry" />
        </mxCell>
        <mxCell id="qt35eCXLMZ2NVoNJmHUJ-4" value="Pod" style="rounded=0;whiteSpace=wrap;html=1;align=right;verticalAlign=top;" vertex="1" parent="1">
          <mxGeometry x="480" y="300" width="190" height="140" as="geometry" />
        </mxCell>
        <mxCell id="qt35eCXLMZ2NVoNJmHUJ-5" value="Envoy&lt;div&gt;Filter&lt;/div&gt;&lt;div&gt;(OA)&lt;/div&gt;" style="rounded=1;whiteSpace=wrap;html=1;" vertex="1" parent="1">
          <mxGeometry x="500" y="310" width="50" height="120" as="geometry" />
        </mxCell>
        <mxCell id="qt35eCXLMZ2NVoNJmHUJ-14" value="" style="rounded=1;whiteSpace=wrap;html=1;" vertex="1" parent="1">
          <mxGeometry x="80" y="275" width="275" height="190" as="geometry" />
        </mxCell>
        <mxCell id="qt35eCXLMZ2NVoNJmHUJ-3" value="ConfusionService" style="rounded=0;whiteSpace=wrap;html=1;verticalAlign=top;align=left;" vertex="1" parent="1">
          <mxGeometry x="102.5" y="290" width="230" height="140" as="geometry" />
        </mxCell>
        <mxCell id="qt35eCXLMZ2NVoNJmHUJ-8" value="ConfusionService" style="rounded=0;whiteSpace=wrap;html=1;verticalAlign=top;align=left;" vertex="1" parent="1">
          <mxGeometry x="90" y="320" width="220" height="120" as="geometry" />
        </mxCell>
        <mxCell id="qt35eCXLMZ2NVoNJmHUJ-9" value="Conductor Engine&lt;div&gt;(CE)&lt;/div&gt;" style="rounded=0;whiteSpace=wrap;html=1;" vertex="1" parent="1">
          <mxGeometry x="480" y="170" width="170" height="80" as="geometry" />
        </mxCell>
        <mxCell id="qt35eCXLMZ2NVoNJmHUJ-11" value="service" style="rounded=1;whiteSpace=wrap;html=1;" vertex="1" parent="1">
          <mxGeometry x="560" y="310" width="80" height="120" as="geometry" />
        </mxCell>
        <mxCell id="qt35eCXLMZ2NVoNJmHUJ-15" value="" style="endArrow=classic;html=1;rounded=0;exitX=0;exitY=0.5;exitDx=0;exitDy=0;entryX=0.469;entryY=0.017;entryDx=0;entryDy=0;entryPerimeter=0;" edge="1" parent="1" source="qt35eCXLMZ2NVoNJmHUJ-9" target="qt35eCXLMZ2NVoNJmHUJ-14">
          <mxGeometry width="50" height="50" relative="1" as="geometry">
            <mxPoint x="370" y="310" as="sourcePoint" />
            <mxPoint x="420" y="260" as="targetPoint" />
            <Array as="points">
              <mxPoint x="284" y="205" />
            </Array>
          </mxGeometry>
        </mxCell>
        <mxCell id="qt35eCXLMZ2NVoNJmHUJ-17" value="Create &amp;amp; Control" style="edgeLabel;html=1;align=center;verticalAlign=middle;resizable=0;points=[];" vertex="1" connectable="0" parent="qt35eCXLMZ2NVoNJmHUJ-15">
          <mxGeometry x="-0.2013" y="2" relative="1" as="geometry">
            <mxPoint as="offset" />
          </mxGeometry>
        </mxCell>
        <mxCell id="qt35eCXLMZ2NVoNJmHUJ-18" value="" style="endArrow=classic;html=1;rounded=0;exitX=1;exitY=0.5;exitDx=0;exitDy=0;entryX=0;entryY=0.5;entryDx=0;entryDy=0;" edge="1" parent="1" source="qt35eCXLMZ2NVoNJmHUJ-14" target="qt35eCXLMZ2NVoNJmHUJ-5">
          <mxGeometry width="50" height="50" relative="1" as="geometry">
            <mxPoint x="440" y="320" as="sourcePoint" />
            <mxPoint x="490" y="270" as="targetPoint" />
          </mxGeometry>
        </mxCell>
        <mxCell id="qt35eCXLMZ2NVoNJmHUJ-19" value="virtual traffic" style="edgeLabel;html=1;align=center;verticalAlign=middle;resizable=0;points=[];" vertex="1" connectable="0" parent="qt35eCXLMZ2NVoNJmHUJ-18">
          <mxGeometry x="-0.2358" y="-1" relative="1" as="geometry">
            <mxPoint as="offset" />
          </mxGeometry>
        </mxCell>
      </root>
    </mxGraphModel>
  </diagram>
</mxfile>
